<svg width="23" height="23" viewBox="0 0 23 23" fill="none" xmlns="http://www.w3.org/2000/svg">
<mask id="mask0_0_11" style="mask-type:alpha" maskUnits="userSpaceOnUse" x="-3" y="-3" width="29" height="30">
<rect x="-2.29713" y="-2.38222" width="27.5656" height="28.5866" fill="#D9D9D9"/>
</mask>
<g mask="url(#mask0_0_11)">
<path d="M6.46069 5.24087L9.67668 0.923107C9.90639 0.605479 10.1792 0.372221 10.495 0.223332C10.8109 0.0744441 11.1411 0 11.4857 0C11.8302 0 12.1605 0.0744441 12.4763 0.223332C12.7922 0.372221 13.0649 0.605479 13.2947 0.923107L16.5106 5.24087L21.3921 6.93819C21.8898 7.09701 22.2822 7.38982 22.5693 7.81663C22.8565 8.24345 23 8.71493 23 9.23107C23 9.46929 22.9665 9.70752 22.8996 9.94574C22.8326 10.184 22.7225 10.4123 22.5693 10.6306L19.4108 15.2759L19.5256 20.1595C19.5448 20.8543 19.3246 21.4399 18.8652 21.9164C18.4058 22.3928 17.8698 22.631 17.2572 22.631C17.2189 22.631 17.0084 22.6012 16.6255 22.5417L11.4857 21.0528L6.34583 22.5417C6.25012 22.5814 6.14483 22.6062 6.02998 22.6161C5.91512 22.6261 5.80983 22.631 5.71412 22.631C5.10155 22.631 4.56555 22.3928 4.10613 21.9164C3.6467 21.4399 3.42656 20.8543 3.4457 20.1595L3.56056 15.2462L0.430713 10.6306C0.27757 10.4123 0.167499 10.184 0.1005 9.94574C0.0334999 9.70752 0 9.46929 0 9.23107C0 8.73478 0.138785 8.27323 0.416355 7.84641C0.693926 7.4196 1.08157 7.11686 1.57928 6.93819L6.46069 5.24087ZM7.86768 7.29553L2.29713 9.2013L5.85769 14.5315L5.74283 20.219L11.4857 18.5813L17.2285 20.2488L17.1136 14.5315L20.6742 9.26085L15.1037 7.29553L11.4857 2.38221L7.86768 7.29553Z" fill="#A6A6A6"/>
</g>
</svg>
