<svg width="15" height="15" viewBox="0 0 15 15" fill="none" xmlns="http://www.w3.org/2000/svg">
<mask id="mask0_112_1470" style="mask-type:alpha" maskUnits="userSpaceOnUse" x="-2" y="-2" width="19" height="18">
<rect x="-1.5" y="-1.41174" width="18" height="16.9412" fill="#D9D9D9"/>
</mask>
<g mask="url(#mask0_112_1470)">
<path d="M4.8 10.5882L7.5 8.04706L10.2 10.5882L11.25 9.6L8.55 7.05882L11.25 4.51765L10.2 3.52941L7.5 6.07059L4.8 3.52941L3.75 4.51765L6.45 7.05882L3.75 9.6L4.8 10.5882ZM7.5 14.1176C6.4625 14.1176 5.4875 13.9324 4.575 13.5618C3.6625 13.1912 2.86875 12.6882 2.19375 12.0529C1.51875 11.4176 0.984375 10.6706 0.590625 9.81177C0.196875 8.95294 0 8.03529 0 7.05882C0 6.08235 0.196875 5.16471 0.590625 4.30588C0.984375 3.44706 1.51875 2.7 2.19375 2.06471C2.86875 1.42941 3.6625 0.926471 4.575 0.555882C5.4875 0.185294 6.4625 0 7.5 0C8.5375 0 9.5125 0.185294 10.425 0.555882C11.3375 0.926471 12.1313 1.42941 12.8063 2.06471C13.4813 2.7 14.0156 3.44706 14.4094 4.30588C14.8031 5.16471 15 6.08235 15 7.05882C15 8.03529 14.8031 8.95294 14.4094 9.81177C14.0156 10.6706 13.4813 11.4176 12.8063 12.0529C12.1313 12.6882 11.3375 13.1912 10.425 13.5618C9.5125 13.9324 8.5375 14.1176 7.5 14.1176ZM7.5 12.7059C9.175 12.7059 10.5938 12.1588 11.7563 11.0647C12.9187 9.97059 13.5 8.63529 13.5 7.05882C13.5 5.48235 12.9187 4.14706 11.7563 3.05294C10.5938 1.95882 9.175 1.41176 7.5 1.41176C5.825 1.41176 4.40625 1.95882 3.24375 3.05294C2.08125 4.14706 1.5 5.48235 1.5 7.05882C1.5 8.63529 2.08125 9.97059 3.24375 11.0647C4.40625 12.1588 5.825 12.7059 7.5 12.7059Z" fill="#1C1B1F"/>
</g>
</svg>
