<svg width="308" height="29" viewBox="0 0 308 29" fill="none" xmlns="http://www.w3.org/2000/svg">
<mask id="mask0_2005_537" style="mask-type:alpha" maskUnits="userSpaceOnUse" x="288" y="9" width="20" height="20">
<rect x="288" y="9" width="20" height="20" fill="#D9D9D9"/>
</mask>
<g mask="url(#mask0_2005_537)">
<path d="M294.687 27.3333L293.208 25.8542L300.062 19L293.208 12.1458L294.687 10.6667L303.021 19L294.687 27.3333Z" fill="#ADACAC"/>
</g>
<mask id="mask1_2005_537" style="mask-type:alpha" maskUnits="userSpaceOnUse" x="6" y="5" width="24" height="24">
<rect x="6" y="5" width="24" height="24" fill="#D9D9D9"/>
</mask>
<g mask="url(#mask1_2005_537)">
<path d="M18 27L17.75 24H17.5C15.1333 24 13.125 23.175 11.475 21.525C9.825 19.875 9 17.8667 9 15.5C9 13.1333 9.825 11.125 11.475 9.475C13.125 7.825 15.1333 7 17.5 7C18.6833 7 19.7875 7.22083 20.8125 7.6625C21.8375 8.10417 22.7375 8.7125 23.5125 9.4875C24.2875 10.2625 24.8958 11.1625 25.3375 12.1875C25.7792 13.2125 26 14.3167 26 15.5C26 16.75 25.7958 17.95 25.3875 19.1C24.9792 20.25 24.4208 21.3167 23.7125 22.3C23.0042 23.2833 22.1625 24.175 21.1875 24.975C20.2125 25.775 19.15 26.45 18 27ZM20 23.35C21.1833 22.35 22.1458 21.1792 22.8875 19.8375C23.6292 18.4958 24 17.05 24 15.5C24 13.6833 23.3708 12.1458 22.1125 10.8875C20.8542 9.62917 19.3167 9 17.5 9C15.6833 9 14.1458 9.62917 12.8875 10.8875C11.6292 12.1458 11 13.6833 11 15.5C11 17.3167 11.6292 18.8542 12.8875 20.1125C14.1458 21.3708 15.6833 22 17.5 22H20V23.35ZM17.475 20.975C17.7583 20.975 18 20.875 18.2 20.675C18.4 20.475 18.5 20.2333 18.5 19.95C18.5 19.6667 18.4 19.425 18.2 19.225C18 19.025 17.7583 18.925 17.475 18.925C17.1917 18.925 16.95 19.025 16.75 19.225C16.55 19.425 16.45 19.6667 16.45 19.95C16.45 20.2333 16.55 20.475 16.75 20.675C16.95 20.875 17.1917 20.975 17.475 20.975ZM16.75 17.8H18.25C18.25 17.3 18.3 16.95 18.4 16.75C18.5 16.55 18.8167 16.1833 19.35 15.65C19.65 15.35 19.9 15.025 20.1 14.675C20.3 14.325 20.4 13.95 20.4 13.55C20.4 12.7 20.1125 12.0625 19.5375 11.6375C18.9625 11.2125 18.2833 11 17.5 11C16.7667 11 16.15 11.2042 15.65 11.6125C15.15 12.0208 14.8 12.5167 14.6 13.1L16 13.65C16.0833 13.3667 16.2417 13.0875 16.475 12.8125C16.7083 12.5375 17.05 12.4 17.5 12.4C17.95 12.4 18.2875 12.525 18.5125 12.775C18.7375 13.025 18.85 13.3 18.85 13.6C18.85 13.8833 18.7667 14.1375 18.6 14.3625C18.4333 14.5875 18.2333 14.8167 18 15.05C17.4167 15.55 17.0625 15.9458 16.9375 16.2375C16.8125 16.5292 16.75 17.05 16.75 17.8Z" fill="#1C1B1F"/>
</g>
</svg>
